# xmcd
#
# Track frame offsets:
#	150
#	18408
#	37852
#	54519
#	69822
#	76511
#	99570
#	121683
#	147875
#	170516
#	180647
#
# Disc length: 2597 seconds
#
# Revision: 1
# Processed by: cddbd v1.4PL0 Copyright (c) Steve Scherf et al.
# Submitted via: EasyCDDAExtractor 6.0.0.1
#
DISCID=7a0a230b
DTITLE=Magnapasta
DYEAR=1900
DGENRE=
TTITLE0=La Follia
TTITLE1=A Boh
TTITLE2=Rondinella
TTITLE3='A Capa toja
TTITLE4=Nann'é chedda 'e ll'altre
TTITLE5=Remota coscienza
TTITLE6=Curre curre
TTITLE7=Pastafoundation
TTITLE8=La Ragghia
TTITLE9=Barrist
TTITLE10=Magnapasta
EXTD=
EXTT0=
EXTT1=
EXTT2=
EXTT3=
EXTT4=
EXTT5=
EXTT6=
EXTT7=
EXTT8=
EXTT9=
EXTT10=
PLAYORDER=
